<svg xmlns="http://www.w3.org/2000/svg" xmlns:xlink="http://www.w3.org/1999/xlink" width="512" height="512" viewBox="0 0 512 512">
  <defs>
    <clipPath id="clip-arrow_back">
      <rect width="512" height="512"/>
    </clipPath>
  </defs>
  <g id="arrow_back" clip-path="url(#clip-arrow_back)">
    <g id="Group_2" data-name="Group 2" transform="translate(-13.931 -13.93)">
      <path id="Subtraction_79" data-name="Subtraction 79" d="M-3560.1,2641.861a257.865,257.865,0,0,1-51.586-5.2,254.669,254.669,0,0,1-48.047-14.915,256,256,0,0,1-43.479-23.6,257.817,257.817,0,0,1-37.882-31.256,257.782,257.782,0,0,1-31.256-37.883,255.977,255.977,0,0,1-23.6-43.479,254.685,254.685,0,0,1-14.915-48.047,257.869,257.869,0,0,1-5.2-51.586,257.871,257.871,0,0,1,5.2-51.586,254.685,254.685,0,0,1,14.915-48.047,255.979,255.979,0,0,1,23.6-43.479A257.811,257.811,0,0,1-3741.1,2204.9a257.786,257.786,0,0,1,37.882-31.256,256,256,0,0,1,43.479-23.6,254.669,254.669,0,0,1,48.047-14.915,257.868,257.868,0,0,1,51.586-5.2,257.866,257.866,0,0,1,51.586,5.2,254.66,254.66,0,0,1,48.047,14.915,256,256,0,0,1,43.479,23.6,257.8,257.8,0,0,1,37.883,31.256,257.826,257.826,0,0,1,31.256,37.882,255.992,255.992,0,0,1,23.6,43.479,254.66,254.66,0,0,1,14.915,48.047,257.862,257.862,0,0,1,5.2,51.586,257.862,257.862,0,0,1-5.2,51.586,254.66,254.66,0,0,1-14.915,48.047,256.008,256.008,0,0,1-23.6,43.479,257.813,257.813,0,0,1-31.256,37.883,257.813,257.813,0,0,1-37.883,31.256,256.008,256.008,0,0,1-43.479,23.6,254.66,254.66,0,0,1-48.047,14.915A257.862,257.862,0,0,1-3560.1,2641.861Zm-69.164-348.148a14.138,14.138,0,0,0-10.035,4.143l-74.323,73.964a.048.048,0,0,1-.012.013,14.129,14.129,0,0,0-4.171,10.068,14.131,14.131,0,0,0,4.172,10.07l.012.013,74.324,73.966a14.139,14.139,0,0,0,10.034,4.142,14.129,14.129,0,0,0,10.083-4.191,14.131,14.131,0,0,0,4.142-10.067,14.13,14.13,0,0,0-4.189-10.047l-49.9-49.659h247.18a14.128,14.128,0,0,0,10.057-4.166,14.133,14.133,0,0,0,4.166-10.059,14.13,14.13,0,0,0-4.166-10.057,14.129,14.129,0,0,0-10.057-4.167h-247.18l49.9-49.658a14.131,14.131,0,0,0,4.19-10.048,14.131,14.131,0,0,0-4.142-10.068A14.133,14.133,0,0,0-3629.268,2293.713Z" transform="translate(3830.069 -2115.93)" fill="#cbcbcb"/>
    </g>
  </g>
</svg>
