<svg xmlns="http://www.w3.org/2000/svg" xmlns:xlink="http://www.w3.org/1999/xlink" width="512" height="512" viewBox="0 0 512 512">
  <defs>
    <clipPath id="clip-certificado">
      <rect width="512" height="512"/>
    </clipPath>
  </defs>
  <g id="certificado" clip-path="url(#clip-certificado)">
    <g id="Group_6939" data-name="Group 6939" transform="translate(1841 -6031)">
      <path id="Path_7814" data-name="Path 7814" d="M102.127,204.254A102.127,102.127,0,1,1,204.254,102.127,102.243,102.243,0,0,1,102.127,204.254Zm0-191.49a89.363,89.363,0,1,0,89.363,89.363A89.464,89.464,0,0,0,102.127,12.764Z" transform="translate(-1686.811 6236.484)" fill="#bebebe"/>
      <path id="Path_7815" data-name="Path 7815" d="M145.981,382.98l-94.923-.011A51.122,51.122,0,0,1,0,331.91V51.058A51.122,51.122,0,0,1,51.058,0H459.566a51.122,51.122,0,0,1,51.058,51.058V331.91a51.122,51.122,0,0,1-51.058,51.058H363.827a6.382,6.382,0,1,1,0-12.764h95.739A38.334,38.334,0,0,0,497.86,331.91V51.058a38.334,38.334,0,0,0-38.293-38.293H51.058A38.334,38.334,0,0,0,12.764,51.058V331.91A38.334,38.334,0,0,0,51.058,370.2h94.935v.052a6.382,6.382,0,0,1,7.192,6.336,6.369,6.369,0,0,1-6.376,6.377,6.47,6.47,0,0,1-.816-.052v.063Z" transform="translate(-1840 6045)" fill="#bebebe"/>
      <path id="Path_7812" data-name="Path 7812" d="M116.625,117.089,72.689,83.941a6.418,6.418,0,0,1-1.031-.975l-7.37-5.56L23.1,108.481a6.391,6.391,0,0,1-1.3.761l-10.781,8.131A6.395,6.395,0,0,1,.2,112.53V5.388a6.375,6.375,0,1,1,12.75,0V99.937l34.739-26.21a6.39,6.39,0,0,1,1.3-.755l11.394-8.6a6.5,6.5,0,0,1,7.758-.046L113.1,98.245a6.366,6.366,0,0,1,1.024.963l.847.639V5.388a6.375,6.375,0,1,1,12.75,0V111.425a6.464,6.464,0,0,1-11.093,5.664Z" transform="translate(-1648.715 6409.822)" fill="#bebebe"/>
    </g>
  </g>
</svg>
