<svg xmlns="http://www.w3.org/2000/svg" xmlns:xlink="http://www.w3.org/1999/xlink" width="512" height="512" viewBox="0 0 512 512">
  <defs>
    <clipPath id="clip-cuenta_ahorro">
      <rect width="512" height="512"/>
    </clipPath>
  </defs>
  <g id="cuenta_ahorro" clip-path="url(#clip-cuenta_ahorro)">
    <path id="Path_8077" data-name="Path 8077" d="M-2193.7,1826.294a17.956,17.956,0,0,1-17.628-14.6l-5.338-28.2a321.816,321.816,0,0,1-44.882,3.128,308.9,308.9,0,0,1-32.409-1.678l-5.062,26.748a17.956,17.956,0,0,1-17.628,14.605h-34.593a17.956,17.956,0,0,1-17.628-14.605l-9.958-51.728c-24.134-13.136-43.065-30.6-56.289-51.937-14.34-23.139-21.612-50.337-21.612-80.841,0-4.1.138-8.127.388-12.1a.026.026,0,0,0,0,.008q-1.909-.177-3.982-.408a41.785,41.785,0,0,1-5.35,8.639c-13.879,17.4-28.326,20.724-37.328,20.724q-.858,0-1.648-.038a7.67,7.67,0,0,1-7.349-7.65v-.036a7.692,7.692,0,0,1,7.5-7.652c7.115-.243,18.07-2.822,27.369-14.485q.781-.98,1.429-1.952c-15.738-3.381-25.223-8.759-28.912-16.361-2.186-4.5-3.325-11.813,3.664-21.048,4.82-6.368,11.766-9.467,19.064-8.491,9.262,1.236,17.992,8.861,22.243,19.426a36.472,36.472,0,0,1,2.684,14.616c.7.073,1.408.133,2.113.2h0c6.641-45.329,30.762-81.022,70.753-104.155a7.327,7.327,0,0,1,10.009,2.673,7.327,7.327,0,0,1-2.673,10.011c-20.625,11.929-36.644,27.568-47.611,46.482-11.753,20.268-17.713,44.355-17.713,71.595,0,53.914,24.706,95.6,71.446,120.553a11.5,11.5,0,0,1,5.91,8l10.245,53.207a3.3,3.3,0,0,0,3.237,2.7h34.592a3.293,3.293,0,0,0,3.234-2.678l5.6-29.582a11.6,11.6,0,0,1,12.694-9.312,292.134,292.134,0,0,0,33.574,1.9,306.294,306.294,0,0,0,45.634-3.394,11.51,11.51,0,0,1,13.09,9.257l5.892,31.134a3.294,3.294,0,0,0,3.234,2.678h34.592a3.293,3.293,0,0,0,3.234-2.678l10.639-56.335a11.478,11.478,0,0,1,6.023-8.091c27.419-14.256,47.938-32.92,60.989-55.475a22.63,22.63,0,0,1,12.664-10.285l33.218-10.64a12.972,12.972,0,0,0,9.045-12.393v-34.188a12.973,12.973,0,0,0-9.045-12.393l-20.617-6.6a23.3,23.3,0,0,1-15.073-15.2,118.288,118.288,0,0,0-17.348-34.308q-2.828-3.876-6-7.571c-4.567,12.338-10.336,20.555-17.222,24.456-6.087,3.448-14.375,5.4-23.366,5.4a61.627,61.627,0,0,1-36.057-11.442,53.032,53.032,0,0,1-19.427-27.308c-4.029-12.616-4.261-27.611-.689-44.564.068-.324.152-.641.233-.959q-3.894-.966-7.845-1.829c-1.975-.428-3.98-.84-6-1.232a100.294,100.294,0,0,1-12.767,15.675,99.939,99.939,0,0,1-17.642,14.056h-.006q6.832,1.774,13.545,4.007a7.326,7.326,0,0,1,4.625,9.271,7.33,7.33,0,0,1-6.947,5,7.32,7.32,0,0,1-2.323-.38,196.594,196.594,0,0,0-123.9,0,7.325,7.325,0,0,1-9.27-4.625,7.326,7.326,0,0,1,4.624-9.271q6.706-2.241,13.546-4.007h-.006a100.01,100.01,0,0,1-17.642-14.056,99.331,99.331,0,0,1-29.284-70.7,99.33,99.33,0,0,1,29.284-70.7,99.33,99.33,0,0,1,70.7-29.285,99.332,99.332,0,0,1,70.7,29.285,99.879,99.879,0,0,1,18.633,25.737,7.324,7.324,0,0,1-3.248,9.837,7.324,7.324,0,0,1-9.838-3.248,85.292,85.292,0,0,0-15.907-21.965,84.773,84.773,0,0,0-60.34-24.995,84.773,84.773,0,0,0-60.34,24.995,84.773,84.773,0,0,0-24.994,60.34,84.771,84.771,0,0,0,24.994,60.339,84.8,84.8,0,0,0,30.858,19.712,212.4,212.4,0,0,1,58.963,0,84.812,84.812,0,0,0,30.858-19.712,85.106,85.106,0,0,0,24.907-56.5,7.317,7.317,0,0,1,7.646-6.99,7.324,7.324,0,0,1,6.991,7.646,99.8,99.8,0,0,1-8.968,37.1c.549.116,1.112.221,1.657.34,4.531.983,9.033,2.078,13.438,3.262a23.866,23.866,0,0,1,4.331-2.578c65.344-29.911,77.417-23.593,81.384-21.513,7.365,3.858,11.1,14.805,11.4,33.469a181.7,181.7,0,0,1-4.48,41.493,141.464,141.464,0,0,1,13.02,15.358,132.948,132.948,0,0,1,19.49,38.552,8.622,8.622,0,0,0,5.565,5.639l20.618,6.6a27.577,27.577,0,0,1,19.226,26.346v34.187a27.582,27.582,0,0,1-19.226,26.348l-33.217,10.641a8.009,8.009,0,0,0-4.454,3.668c-14.252,24.633-36.311,44.961-65.577,60.437l-10.359,54.849a17.958,17.958,0,0,1-17.629,14.608Zm-295.564-242.626c-1.134,1.5-2.923,4.248-2.166,5.811,1.71,3.528,9.588,6.557,19.729,8.659a22.254,22.254,0,0,0-1.533-6.908c-2.5-6.214-7.219-9.921-10.587-10.37a5.49,5.49,0,0,0-.738-.052C-2485.812,1580.808-2487.469,1581.293-2489.267,1583.668Zm320.492-94.74a8.841,8.841,0,0,0-5.027,6.12h0c-5.549,26.342-.561,46.061,14.43,57.027,14.973,10.953,34.916,10.008,43.553,5.115,7.6-4.3,15.162-24.929,17.982-49.041,2.847-24.334-.249-38.631-2.608-41.144a7.675,7.675,0,0,0-2.656-.355C-2110.957,1466.65-2132.1,1472.14-2168.775,1488.928Zm31.564,112.409a7.325,7.325,0,0,1,7.326-7.324,7.324,7.324,0,0,1,7.324,7.324,9.312,9.312,0,0,0,9.3,9.3,9.311,9.311,0,0,0,9.3-9.3,7.325,7.325,0,0,1,7.326-7.324,7.324,7.324,0,0,1,7.325,7.324,23.98,23.98,0,0,1-23.952,23.952A23.978,23.978,0,0,1-2137.211,1601.337Zm-150.136-118.377v-4c-16.012-.258-26.86-8.911-26.86-15.238,0-3.1,2.712-7.362,5.941-7.362,4.261,0,7.747,9.04,20.919,10.073v-30.347c-11.622-4.132-24.536-8.781-24.536-25.312,0-16.271,12.268-22.729,24.536-24.02v-3.745c0-1.549,1.55-2.97,3.746-2.97,1.937,0,3.875,1.421,3.875,2.97v3.488c8.781.258,21.179,2.97,21.179,9.3,0,2.454-1.807,7.361-5.683,7.361-3.1,0-6.457-4.132-15.5-4.778v26.214c11.235,4.132,23.5,9.815,23.5,27.378,0,15.884-9.556,24.665-23.5,26.6v4.39c0,1.549-1.936,2.97-3.875,2.97C-2285.8,1485.93-2287.347,1484.509-2287.347,1482.96Zm6.844-16.789c6.973-1.292,11.364-5.423,11.364-12.785,0-8.135-5.035-11.751-11.364-14.462Zm-18.465-56.691c0,7.36,5.552,10.072,12.4,12.655v-23.5C-2293.8,1399.536-2298.968,1402.764-2298.968,1409.48Z" transform="translate(2516 -1324)" fill="#bebebe"/>
    <path id="Path_7613_-_Outline" data-name="Path 7613 - Outline" d="M352.89,498.509H318.3a18.057,18.057,0,0,1-17.726-14.685l-5.32-28.107a322.141,322.141,0,0,1-44.8,3.116,309.124,309.124,0,0,1-32.327-1.669l-5.046,26.658a18.056,18.056,0,0,1-17.726,14.686H160.757a18.056,18.056,0,0,1-17.726-14.686l-9.95-51.681C108.954,419,90.019,401.522,76.8,380.19,62.446,357.034,55.169,329.818,55.169,299.3c0-3.9.129-7.934.382-12-1.34-.125-2.59-.253-3.816-.391A42,42,0,0,1,46.4,295.5c-6.205,7.781-13.112,13.472-20.529,16.917A39.871,39.871,0,0,1,9,316.264c-.565,0-1.121-.013-1.652-.037A7.767,7.767,0,0,1-.1,308.476v-.035a7.659,7.659,0,0,1,2.217-5.406A7.891,7.891,0,0,1,7.5,300.688a34.267,34.267,0,0,0,12.828-2.951,38.677,38.677,0,0,0,14.466-11.5c.48-.6.931-1.215,1.342-1.823-7.773-1.68-14.117-3.893-18.859-6.577a29.184,29.184,0,0,1-6.1-4.491A19.313,19.313,0,0,1,7.3,268.034c-2.2-4.53-3.345-11.878,3.674-21.152a22.567,22.567,0,0,1,7.467-6.46,19.224,19.224,0,0,1,9.04-2.247,20.047,20.047,0,0,1,2.651.178c9.3,1.24,18.058,8.89,22.321,19.487A36.526,36.526,0,0,1,55.142,272.4c.529.054,1.068.1,1.589.149l.337.03a153.847,153.847,0,0,1,8.225-32.071,135.206,135.206,0,0,1,35.553-52.39,155.044,155.044,0,0,1,27.01-19.672,7.426,7.426,0,0,1,7.436,12.856c-20.61,11.921-36.616,27.548-47.575,46.446C75.974,248,70.019,272.076,70.019,299.3c0,53.874,24.687,95.531,71.393,120.466a11.6,11.6,0,0,1,5.962,8.067l10.244,53.208a3.207,3.207,0,0,0,3.139,2.62h34.593a3.193,3.193,0,0,0,3.135-2.6l5.6-29.583a11.613,11.613,0,0,1,4.059-6.807,11.654,11.654,0,0,1,8.745-2.585,291.951,291.951,0,0,0,33.562,1.9,306.117,306.117,0,0,0,45.619-3.393,11.96,11.96,0,0,1,1.786-.135,11.6,11.6,0,0,1,11.416,9.473l5.893,31.134a3.194,3.194,0,0,0,3.135,2.6h34.593a3.193,3.193,0,0,0,3.135-2.6l10.639-56.335a11.579,11.579,0,0,1,6.075-8.161c27.4-14.246,47.907-32.9,60.949-55.436a22.733,22.733,0,0,1,12.72-10.33l33.218-10.64a12.873,12.873,0,0,0,8.975-12.3V293.672a12.874,12.874,0,0,0-8.975-12.3l-20.618-6.6a23.4,23.4,0,0,1-15.138-15.262,118.181,118.181,0,0,0-17.333-34.28c-1.833-2.512-3.812-5.013-5.882-7.436-4.568,12.277-10.356,20.469-17.206,24.349-6.168,3.493-14.484,5.417-23.416,5.417a63.652,63.652,0,0,1-18.441-2.729,58.5,58.5,0,0,1-17.675-8.733,53.132,53.132,0,0,1-19.462-27.358c-4.035-12.634-4.268-27.645-.692-44.615.061-.291.135-.58.207-.861v-.006c-2.647-.656-5.252-1.262-7.745-1.8-1.917-.416-3.913-.826-5.931-1.219a99.984,99.984,0,0,1-30.206,29.582c4.555,1.188,9.036,2.517,13.322,3.949a7.426,7.426,0,1,1-4.709,14.086,194.01,194.01,0,0,0-30.58-7.509,197.464,197.464,0,0,0-62.68,0,194.017,194.017,0,0,0-30.58,7.509,7.426,7.426,0,0,1-4.709-14.086c4.274-1.429,8.755-2.757,13.322-3.949A100.08,100.08,0,1,1,316.207,60.093a7.426,7.426,0,1,1-13.265,6.679A85.281,85.281,0,1,0,197.314,185.048a212.527,212.527,0,0,1,58.941,0,85.132,85.132,0,0,0,55.676-76.11,7.42,7.42,0,0,1,7.381-7.094c.122,0,.247,0,.369.009a7.424,7.424,0,0,1,7.086,7.75,99.889,99.889,0,0,1-8.925,37.023l.607.123c.306.061.622.125.928.191,4.464.969,8.971,2.062,13.4,3.25a23.923,23.923,0,0,1,4.31-2.56c19.082-8.735,35.283-15.129,48.154-19.005,9.967-3,18.036-4.524,23.985-4.524,5.483,0,7.893,1.264,9.333,2.019,7.4,3.876,11.148,14.853,11.456,33.556a181.916,181.916,0,0,1-4.47,41.464,141.99,141.99,0,0,1,12.992,15.33,133.032,133.032,0,0,1,19.5,38.581,8.525,8.525,0,0,0,5.5,5.574l20.618,6.6a27.677,27.677,0,0,1,19.3,26.441v34.188a27.682,27.682,0,0,1-19.3,26.444l-33.217,10.64a7.907,7.907,0,0,0-4.4,3.624c-14.253,24.633-36.316,44.972-65.575,60.452l-10.35,54.8A18.059,18.059,0,0,1,352.89,498.509Zm-57.478-43.017.018.094,5.337,28.2a17.857,17.857,0,0,0,17.53,14.523H352.89a17.858,17.858,0,0,0,17.531-14.527l10.368-54.9.043-.022c29.246-15.465,51.3-35.786,65.538-60.4a8.107,8.107,0,0,1,4.509-3.714l33.217-10.64a27.483,27.483,0,0,0,19.156-26.253V293.67A27.477,27.477,0,0,0,484.1,267.42l-20.618-6.6a8.725,8.725,0,0,1-5.631-5.7,132.836,132.836,0,0,0-19.476-38.523,141.832,141.832,0,0,0-13.011-15.347l-.028-.029v-.041h.1l-.1-.022a181.7,181.7,0,0,0,4.478-41.469c-.306-18.623-4.018-29.543-11.349-33.382-1.424-.747-3.807-2-9.24-2-5.929,0-13.98,1.519-23.927,4.515-12.862,3.874-29.055,10.265-48.128,19a23.736,23.736,0,0,0-4.312,2.568l-.039.029-.047-.013c-4.437-1.192-8.957-2.289-13.433-3.261-.3-.066-.62-.13-.925-.191-.241-.048-.489-.1-.732-.149l-.122-.026.052-.114a99.69,99.69,0,0,0,8.959-37.062,7.226,7.226,0,1,0-14.437-.647,85.246,85.246,0,0,1-55.83,76.3l-.024.009-.025,0a212.334,212.334,0,0,0-58.935,0l-.025,0-.024-.009A85.4,85.4,0,1,1,303.121,66.682a7.226,7.226,0,1,0,12.908-6.5A99.89,99.89,0,1,0,173.781,189.77l-.037.06.015.121c-4.642,1.206-9.2,2.554-13.539,4.005a7.226,7.226,0,1,0,4.582,13.707,194.22,194.22,0,0,1,30.611-7.516,197.664,197.664,0,0,1,62.744,0,194.214,194.214,0,0,1,30.612,7.516,7.226,7.226,0,0,0,4.582-13.707c-4.354-1.455-8.909-2.8-13.539-4.005l.015-.121-.037-.06a99.782,99.782,0,0,0,30.378-29.7l.037-.056.066.013c2.043.4,4.062.811,6,1.232,2.525.548,5.166,1.164,7.848,1.829l.1.024-.052.2c-.072.278-.145.566-.205.852-3.569,16.937-3.338,31.913.686,44.513a52.936,52.936,0,0,0,19.39,27.257,58.306,58.306,0,0,0,17.615,8.7,63.452,63.452,0,0,0,18.383,2.72c8.9,0,17.179-1.915,23.317-5.391,6.838-3.873,12.617-12.083,17.177-24.4l.059-.16.111.129c2.114,2.467,4.133,5.016,6,7.577a118.378,118.378,0,0,1,17.362,34.337,23.2,23.2,0,0,0,15.008,15.132l20.618,6.6a13.073,13.073,0,0,1,9.114,12.488V327.86a13.073,13.073,0,0,1-9.114,12.488l-33.218,10.64a22.533,22.533,0,0,0-12.608,10.24c-13.061,22.572-33.594,41.249-61.03,55.514a11.38,11.38,0,0,0-5.97,8.021L356.223,481.1a3.393,3.393,0,0,1-3.332,2.759H318.3a3.394,3.394,0,0,1-3.332-2.759l-5.893-31.134a11.4,11.4,0,0,0-11.22-9.311,11.76,11.76,0,0,0-1.756.133,306.326,306.326,0,0,1-45.649,3.4,292.157,292.157,0,0,1-33.585-1.9,11.5,11.5,0,0,0-12.584,9.231l-5.6,29.583a3.393,3.393,0,0,1-3.332,2.759H160.756a3.407,3.407,0,0,1-3.336-2.783l-10.244-53.208a11.4,11.4,0,0,0-5.859-7.928c-46.775-24.972-71.5-66.689-71.5-120.642,0-27.257,5.964-51.361,17.726-71.645,10.976-18.928,27.007-34.579,47.647-46.519a7.226,7.226,0,1,0-7.236-12.51,154.845,154.845,0,0,0-26.975,19.646,135.006,135.006,0,0,0-35.5,52.313,153.674,153.674,0,0,0-8.228,32.124l-.1-.007-.008.091-.431-.039c-.552-.05-1.124-.1-1.684-.159l-.092-.009,0-.093a36.32,36.32,0,0,0-2.677-14.576c-4.237-10.532-12.936-18.132-22.162-19.363a19.853,19.853,0,0,0-2.625-.176,19.026,19.026,0,0,0-8.947,2.224,22.368,22.368,0,0,0-7.4,6.4C4.171,256.2,5.3,263.467,7.475,267.947a19.115,19.115,0,0,0,3.841,5.26,28.987,28.987,0,0,0,6.056,4.46c4.753,2.691,11.127,4.907,18.946,6.587l.144.031-.082.122c-.436.653-.918,1.312-1.434,1.959A38.873,38.873,0,0,1,20.4,297.92a34.465,34.465,0,0,1-12.9,2.968,7.692,7.692,0,0,0-5.243,2.287A7.46,7.46,0,0,0,.1,308.44v.035a7.567,7.567,0,0,0,7.254,7.551c.529.025,1.082.037,1.643.037a39.672,39.672,0,0,0,16.792-3.826c7.389-3.431,14.272-9.1,20.457-16.86a41.766,41.766,0,0,0,5.336-8.619l.03-.066.072.008c1.277.144,2.579.278,3.981.408l-.007.079.1.019v.11h-.006c-.253,4.058-.381,8.088-.381,11.98,0,30.483,7.267,57.664,21.6,80.788,13.211,21.314,32.136,38.776,56.251,51.9l.041.023.009.046,9.959,51.727a17.856,17.856,0,0,0,17.53,14.524H195.35a17.856,17.856,0,0,0,17.53-14.524l5.08-26.839.092.01a308.854,308.854,0,0,0,32.4,1.678,321.93,321.93,0,0,0,44.869-3.127ZM40.4,270.377l-.128-.026a71.581,71.581,0,0,1-13.045-3.8c-3.651-1.546-5.923-3.2-6.754-4.912-.781-1.611,1.028-4.4,2.176-5.915,1.478-1.952,3.043-2.9,4.786-2.9a5.581,5.581,0,0,1,.751.053c3.4.453,8.152,4.182,10.667,10.432a22.3,22.3,0,0,1,1.54,6.94ZM27.44,253.022c-1.676,0-3.189.923-4.626,2.821-1.12,1.481-2.89,4.193-2.156,5.707.809,1.669,3.047,3.289,6.652,4.815a71.062,71.062,0,0,0,12.879,3.762,22.092,22.092,0,0,0-1.517-6.746c-2.486-6.179-7.168-9.863-10.508-10.308A5.383,5.383,0,0,0,27.44,253.022ZM379.974,232.9c-5.832,0-17.148-1.12-27.406-8.624-15.022-10.989-20.026-30.74-14.471-57.118l0-.01a8.937,8.937,0,0,1,5.084-6.19c35.9-16.432,57.484-22.287,65.714-22.287a7.772,7.772,0,0,1,2.693.362l.021.008.016.016c1.087,1.158,2.52,5.037,3.283,12.448a133.332,133.332,0,0,1-.648,28.776c-2.823,24.141-10.407,44.8-18.032,49.117C392.3,231.618,386.375,232.9,379.974,232.9ZM338.3,167.175l0,.01c-5.541,26.3-.565,45.985,14.391,56.925,10.212,7.47,21.48,8.586,27.288,8.586,6.367,0,12.256-1.267,16.156-3.477,7.574-4.29,15.116-24.883,17.932-48.966a133.136,133.136,0,0,0,.648-28.733,51.9,51.9,0,0,0-1.45-8.306A10.85,10.85,0,0,0,411.5,139.2a7.674,7.674,0,0,0-2.6-.34c-4.43,0-12.243,1.719-22,4.839a403.855,403.855,0,0,0-43.632,17.43A8.737,8.737,0,0,0,338.3,167.175Z" transform="translate(4 3.885)" fill="#bebebe"/>
  </g>
</svg>
