<svg xmlns="http://www.w3.org/2000/svg" xmlns:xlink="http://www.w3.org/1999/xlink" width="512" height="512" viewBox="0 0 512 512">
  <defs>
    <clipPath id="clip-path">
      <path id="Path_8076" data-name="Path 8076" d="M0,0H512V512H0Z" transform="translate(7721.965 4852.965)" fill="#bebebe"/>
    </clipPath>
    <clipPath id="clip-cuenta_corriente">
      <rect width="512" height="512"/>
    </clipPath>
  </defs>
  <g id="cuenta_corriente" clip-path="url(#clip-cuenta_corriente)">
    <g id="Mask_Group_68" data-name="Mask Group 68" transform="translate(-7721.965 -4852.965)" clip-path="url(#clip-path)">
      <path id="Path_8078" data-name="Path 8078" d="M4569.908,6462.627a18.965,18.965,0,0,1-18.944-18.944V6204.908a18.964,18.964,0,0,1,18.944-18.942h473.574a18.963,18.963,0,0,1,18.942,18.942v238.775a18.964,18.964,0,0,1-18.942,18.944Zm-1.091-251.237V6437.2a7.586,7.586,0,0,0,7.578,7.577h460.6a7.586,7.586,0,0,0,7.578-7.577V6211.391a7.584,7.584,0,0,0-7.578-7.576h-460.6A7.584,7.584,0,0,0,4568.817,6211.391Zm324.706,222.063a6.112,6.112,0,0,1-4.3-4c-2.548-8.992,4.454-20.9,13.606-30.905a101.131,101.131,0,0,0,3.149-14.453c-2.227,2.611-4.467,5.232-6.693,7.766-3.457,3.925-7.073,8.082-10.457,12.228a4.932,4.932,0,0,1-4.762,1.918,5.867,5.867,0,0,1-4.379-4.072,5.091,5.091,0,0,1,1.3-5.228c3.3-4.073,6.841-8.069,10.3-11.994,5.615-6.3,11.381-12.756,16.068-19.755a6.61,6.61,0,0,1,6.619-2.387,4.64,4.64,0,0,1,3.765,4.073c.086.7.161,1.317.233,2h.075l-.075.075a74.721,74.721,0,0,1-.233,16.532,52,52,0,0,1,8.846-5.388,6.386,6.386,0,0,1,5.156-.147,5.527,5.527,0,0,1,3.15,3.617c.306,1.083.626,1.919.773,2.694a6.794,6.794,0,0,1,.775,2.692,75.063,75.063,0,0,1,14.456-2.147c4.381-.383,8.993.7,13.533,1.769,6.688,1.54,13.066,3.077,18.528.149a6.49,6.49,0,0,1,5.609,0,5.166,5.166,0,0,1,2.7,3.148c.451-.311.837-.543,1.3-.851,6.225-4.159,11.6-7.688,21.677-7l.039-.027a5.9,5.9,0,0,1,3.839,9.77,5.143,5.143,0,0,1-4.073,1.538c-6.544-.381-9.313,2-12.771,5.08a45.568,45.568,0,0,1-5.609,4.31c-.923.614-1.842,1.068-2.694,1.537-.075,6.379-1.612,13.069-7,17.142a11.377,11.377,0,0,1-10.837,2.227,10.762,10.762,0,0,1-6.927-8.069c-1.452-5.843.775-11.231,6.619-15.992a71.221,71.221,0,0,1-12-1.919l-1.156-.233c-7.912-1.918-20.829-1.687-29.293,2.694a5.6,5.6,0,0,1-6.079-.379,6.107,6.107,0,0,1-2.386-6l.073-.775a130.725,130.725,0,0,0-10.385,9.078c-3.456,11-8.538,21.146-14.763,28.221a5.337,5.337,0,0,1-3.852,1.611c-.078,0-.156.005-.234.005A4.934,4.934,0,0,1,4893.522,6433.454Zm-298.86-75.886c-4.994,0-8.921-3.223-8.921-7.38,0-4.917,3-7.381,8.921-7.381h97.178c6.608,0,8.919,4,8.919,7.381s-2.312,7.38-8.92,7.38Zm57.045-58.736h-57.967a8.985,8.985,0,0,1-8-4.306,7.209,7.209,0,0,1,.154-7.232l.074-.075c2.388-3.619,6.078-4,8.612-4l164.878.775-.006-.013c1.7,0,6.839,0,8,5.461l.075.235v.233c0,1.846,0,5.3-2.084,6.84-1.536,2.079-4.922,2.079-6.841,2.079-6.279.258-18.051.344-31.694.344C4699.628,6299.176,4664.88,6298.833,4651.708,6298.833ZM4593.9,6269c-4.775,0-8.158-3-8.158-7.38,0-4.3,3.311-7.381,8.158-7.381h254.13v0c6.076,0,8.229,3.383,8.844,6.15l.074.235v.233c0,5.07-3.309,8.146-8.918,8.146Zm-1.826-28.98-.235-.073c-4.146-1-6.152-3.383-6.152-7.309,0-4.379,2.694-7.381,6.619-7.381l354.317.074.233.075h-.011c4.146.994,6.15,3.457,6.15,7.307s-2,6.311-6.15,7.307Z" transform="translate(3171.539 -1215.379)" fill="#bebebe"/>
    </g>
  </g>
</svg>
