<svg xmlns="http://www.w3.org/2000/svg" xmlns:xlink="http://www.w3.org/1999/xlink" width="512" height="512" viewBox="0 0 512 512">
  <defs>
    <clipPath id="clip-done">
      <rect width="512" height="512"/>
    </clipPath>
  </defs>
  <g id="done" clip-path="url(#clip-done)">
    <g id="if_circle-check_430087" transform="translate(-13.903 -13.869)">
      <g id="Group_6104" data-name="Group 6104" transform="translate(13.903 13.871)">
        <path id="Path_6931" data-name="Path 6931" d="M377.809,180.214,220.854,337.164l-59.568-59.578A10.2,10.2,0,1,0,146.864,292l73.995,74.01L392.231,194.631a10.2,10.2,0,0,0-14.422-14.417ZM269.54,13.871C128.577,13.871,13.9,128.55,13.9,269.492c.01,140.963,114.69,255.647,255.647,255.647h.02c140.942,0,255.606-114.684,255.606-255.647C525.177,128.545,410.5,13.871,269.54,13.871Zm.031,490.87h-.02C139.842,504.741,34.312,399.21,34.3,269.492c0-129.7,105.526-235.223,235.239-235.223S504.778,139.795,504.778,269.492C504.778,399.21,399.268,504.741,269.57,504.741Z" transform="translate(-13.903 -13.871)" fill="#bebebe"/>
      </g>
    </g>
  </g>
</svg>
