<svg xmlns="http://www.w3.org/2000/svg" xmlns:xlink="http://www.w3.org/1999/xlink" width="512" height="512" viewBox="0 0 512 512">
  <defs>
    <clipPath id="clip-firma">
      <rect width="512" height="512"/>
    </clipPath>
  </defs>
  <g id="firma" clip-path="url(#clip-firma)">
    <g id="click" transform="translate(64.022 0)">
      <path id="Path_6688" data-name="Path 6688" d="M342.944,199.044h-.718a39.441,39.441,0,0,0-26.583,10.107c-5.906-16.345-20.916-28.095-38.5-28.095a39.939,39.939,0,0,0-28.532,12.275c-6.864-13.9-20.634-23.323-36.467-23.323h-.765a37.441,37.441,0,0,0-23.478,7.822V78.763c0-23.94-18.639-43.415-41.311-43.415-22.646,0-41.189,19.462-41.2,43.386L105.2,275.289l-11.124-13.51a56.105,56.105,0,0,0-39.647-20.823,55.205,55.205,0,0,0-41.357,14.636L3.4,263.61A8.6,8.6,0,0,0,1.256,274.2l94.1,180.882c17.206,33.056,49.943,53.678,85.436,53.678H286.842v-.093c53.77,0,97.366-46.658,97.421-103.949.021-25.633-.076-44.738-.059-60.223.055-41.428.013-56.715-.092-102.357C384.057,218.259,365.553,199.044,342.944,199.044Zm23.928,145.4c-.017,15.488-.042,34.669-.067,60.3-.046,47.818-36.144,86.809-80.466,86.809H180.8c-29.053,0-55.942-17.076-70.17-44.415l-90.9-174.673,4.486-3.743c.113-.092.223-.2.332-.3a38.191,38.191,0,0,1,28.675-10.3,39.041,39.041,0,0,1,27.54,14.585l26.335,32.044a8.6,8.6,0,0,0,15.249-5.453L122.5,78.742c.008-14.442,10.93-26.192,24.1-26.192s24.1,11.762,24.1,26.213V211.747c0,.462-.021.928-.021,1.4,0,.2.021.407.021.6v56.858a8.6,8.6,0,1,0,17.206,0V212.037c0-13.934,10.645-24.823,23.478-24.823h.765c13.182,0,24.15,11.489,24.15,25.94v52.027a8.6,8.6,0,1,0,17.206,0V224.362c0-14.455,10.443-26.213,23.7-26.213,13.178,0,23.621,11.754,23.621,26.213v38.509a8.6,8.6,0,0,0,17.206,0V242.018c0-14.455,11.014-25.768,24.2-25.768h.718c13.148,0,23.865,11.506,23.9,25.915C366.947,287.773,366.926,303.043,366.872,344.442Zm0,0" transform="translate(0 2.665)" fill="#bebebe"/>
      <path id="Path_6689" data-name="Path 6689" d="M73.213,85.142a8.6,8.6,0,0,0,8.6-8.6,59.618,59.618,0,0,1,119.235,0,8.6,8.6,0,0,0,17.207,0,76.825,76.825,0,0,0-153.648,0A8.6,8.6,0,0,0,73.213,85.142Zm0,0" transform="translate(4.85)" fill="#bebebe"/>
    </g>
  </g>
</svg>
