<svg xmlns="http://www.w3.org/2000/svg" xmlns:xlink="http://www.w3.org/1999/xlink" width="512" height="512" viewBox="0 0 512 512">
  <defs>
    <clipPath id="clip-menu">
      <rect width="512" height="512"/>
    </clipPath>
  </defs>
  <g id="menu" clip-path="url(#clip-menu)">
    <g id="Group_6942" data-name="Group 6942">
      <g id="Group_6941" data-name="Group 6941" transform="translate(-326.24 19.536)">
        <g id="personal-login" transform="translate(326.62 43)">
          <path id="Path_5961" data-name="Path 5961" d="M340.117,164.112a152.5,152.5,0,0,0-43.924-87.847c-23.865-23.865-52.566-38.248-85.461-43.6-5.353-.839-10.707-1.225-16-2.064H177.9c-4.515.839-9.03,1.225-12.706,2.064C107.728,42.081,67.481,73.75,44.068,126.7,37.1,141.925,33.812,157.92,32.587,174.755c0,.839-.387,2.064-.387,2.9v16.834c.387,4.515.838,9.03,1.612,13.545Q44.939,277.6,103.6,316.458a149.018,149.018,0,0,0,72.69,24.252c.838,0,1.612.387,2.451.387h16.834c4.515-.387,9.03-.838,13.545-1.612,47.6-7.417,84.171-32.056,110.035-72.69a149.3,149.3,0,0,0,22.188-69.465c0-.839.387-2.064.387-2.9V177.592c-.387-4.45-.838-8.965-1.612-13.48Zm-52.179,112.1c-18.9-13.158-41.473-16.447-61.983-24.252v9.417a42.276,42.276,0,0,1-4.128,20.124c-6.579,13.932-15.609,27.089-27.541,37.345a11.882,11.882,0,0,1-15.222,0c-14.383-12.706-25.477-28.315-30.766-46.826-2.064-6.128-1.225-13.158-1.612-20.124-20.511,7.8-42.7,10.707-61.6,23.8-40.247-41.86-51.341-119.9-2.9-177.371,50.954-60.306,140.027-64.37,195.883-12.642C336.376,139.474,334.312,225.257,287.937,276.211Z" transform="translate(-32.2 -30.6)" fill="#bebebe"/>
          <path id="Path_5962" data-name="Path 5962" d="M427.054,259.821a5.431,5.431,0,0,1,.388-2.451c.387-9.417,1.613-18.9,1.226-28.315-.839-17.221-8.643-30.766-23.8-39.022-24.251-13.544-48.891-13.544-73.528-.838-11.48,6.127-19.285,15.222-22.961,27.541a69.36,69.36,0,0,0-2.451,22.574c.387,6.966,1.225,13.545,1.612,20.511-4.9.838-6.966,2.451-7.805,7.417-1.612,9.868,1.613,18.06,7.805,25.477a19.358,19.358,0,0,1,3.29,4.515c5.353,11.094,11.093,21.349,19.284,30.379,9.869,10.707,21.737,17.673,36.571,17.673,14.77,0,27.089-6.579,36.958-17.221,8.642-9.03,14.77-20.124,20.124-31.217a20.645,20.645,0,0,1,2.9-3.676c6.579-7.8,9.868-16.447,8.191-26.251C434.021,262.271,431.957,260.208,427.054,259.821Zm-.838,14.77a23.183,23.183,0,0,1-7.417,13.932c-1.225.838-2.064,2.45-2.9,4.127-4.515,9.03-9.03,18.06-14.384,26.251-13.545,20.51-36.957,20.962-52.115,14.77-7.8-3.289-13.544-9.03-18.06-16-4.515-7.8-8.643-16-13.158-24.252a44.414,44.414,0,0,0-4.128-6.127,22.263,22.263,0,0,1-6.127-18.447,9.249,9.249,0,0,1,4.128-4.9c.838-.387,3.29,1.225,4.514,2.9,1.613,2.064,2.451,4.515,3.677,6.966-1.226-7.417-2.9-14.383-3.677-21.736a113.877,113.877,0,0,1-.387-11.481c0-.387.387-.838.387-1.225,4.9-9.869,11.481-18.06,22.962-20.124a3.445,3.445,0,0,1,3.29.838c16,16,36.119,22.574,58.307,25.026,5.354.838,11.094,1.225,17.672,1.612-1.225,9.03-2.9,18.06-4.515,26.7a66.042,66.042,0,0,1,4.128-7.417c2.451-3.676,5.74-3.29,7.417,1.226A15.463,15.463,0,0,1,426.216,274.591Z" transform="translate(-213.176 -131.662)" fill="#bebebe"/>
          <path id="Path_5963" data-name="Path 5963" d="M485.051,738.393c2.9-2.45,4.9-4.9,7.418-7.416,1.224-1.226.837-2.065,0-3.289-3.291-4.9-8.193-6.58-13.933-5.354a17.88,17.88,0,0,1-4.515-.386c-4.9-.39-7.418,3.676-10.255,6.577-.387.387,0,2.063.388,2.452a55.96,55.96,0,0,0,6.579,6.965c2.063,1.612,2.45,3.289,1.225,5.741-2.9,6.127-5.354,12.706-8.191,19.283a3.666,3.666,0,0,0,.388,4.518c4.127,4.127,8.19,8.19,12.706,11.931a2.74,2.74,0,0,0,2.451,0c4.515-4.127,8.643-7.8,12.706-11.931a3.667,3.667,0,0,0,.387-4.518c-2.9-6.577-5.74-13.542-8.643-20.509C483.051,740.844,483.438,739.62,485.051,738.393Z" transform="translate(-324.191 -498.975)" fill="#bebebe"/>
        </g>
        <path id="Subtraction_8" data-name="Subtraction 8" d="M312.508,327.4H0V267.865H312.508V327.4Zm0-89.293H59.262a172.555,172.555,0,0,0,53.869-59.533H312.508v59.533Zm0-89.293H125.863a171.1,171.1,0,0,0,8.07-52.086c0-2.489-.053-4.99-.158-7.433H312.508v59.52Zm0-89.28H129.881A169.551,169.551,0,0,0,104,0H312.508V59.533Z" transform="translate(525.734 102.531)" fill="#bebebe"/>
      </g>
    </g>
  </g>
</svg>
