<svg xmlns="http://www.w3.org/2000/svg" xmlns:xlink="http://www.w3.org/1999/xlink" width="512" height="512" viewBox="0 0 512 512">
  <defs>
    <clipPath id="clip-moneda">
      <rect width="512" height="512"/>
    </clipPath>
  </defs>
  <g id="moneda" clip-path="url(#clip-moneda)">
    <g id="Group_6944" data-name="Group 6944" transform="translate(-0.798 -0.801)">
      <path id="Path_8079" data-name="Path 8079" d="M-1597.889,2626.2c-140.662,0-255.1-114.433-255.111-255.1s114.434-255.1,255.1-255.1,255.1,114.438,255.1,255.1-114.423,255.1-255.071,255.1Zm-234.756-255.1c.011,129.441,105.32,234.745,234.756,234.745h.02c129.426,0,234.715-105.3,234.715-234.745s-105.3-234.745-234.745-234.745S-1832.645,2241.654-1832.645,2371.1Zm224.486,172.189v-27.437a85.517,85.517,0,0,1-27.556-8.923,82.326,82.326,0,0,1-22.321-17.085,77.021,77.021,0,0,1-14.866-23.333,73.392,73.392,0,0,1-5.4-27.692,10.439,10.439,0,0,1,10.427-10.428,10.44,10.44,0,0,1,10.428,10.428,52.785,52.785,0,0,0,3.771,19.621,56.051,56.051,0,0,0,10.418,16.694,61.114,61.114,0,0,0,15.721,12.522,64.586,64.586,0,0,0,19.379,7.049V2380.81a85.541,85.541,0,0,1-27.556-8.923,82.344,82.344,0,0,1-22.321-17.083,77.052,77.052,0,0,1-14.866-23.332,73.417,73.417,0,0,1-5.4-27.7,73.393,73.393,0,0,1,5.4-27.692,77.041,77.041,0,0,1,14.866-23.332,82.38,82.38,0,0,1,22.321-17.082,85.541,85.541,0,0,1,27.556-8.923v-27.42a10.44,10.44,0,0,1,10.427-10.428,10.44,10.44,0,0,1,10.428,10.428v26.881a87.776,87.776,0,0,1,15.562,2.873,85.641,85.641,0,0,1,14.781,5.661,83.477,83.477,0,0,1,13.378,8.255A81.255,81.255,0,0,1-1532,2253.678a10.369,10.369,0,0,1,2.629,7.538,10.354,10.354,0,0,1-3.468,7.185,10.411,10.411,0,0,1-6.938,2.643,10.425,10.425,0,0,1-7.781-3.482,61.007,61.007,0,0,0-17.966-13.786,65.172,65.172,0,0,0-21.78-6.6v114.062a84.607,84.607,0,0,1,52.962,25.011,79.3,79.3,0,0,1,9.082,11.218,76.272,76.272,0,0,1,6.835,12.675,73.374,73.374,0,0,1,5.805,28.67,73.346,73.346,0,0,1-5.806,28.667,76.243,76.243,0,0,1-6.836,12.675,79.29,79.29,0,0,1-9.082,11.219,82.251,82.251,0,0,1-11.048,9.5,84.249,84.249,0,0,1-12.735,7.513,85.919,85.919,0,0,1-29.178,8v26.9a10.44,10.44,0,0,1-10.428,10.428A10.44,10.44,0,0,1-1608.159,2543.285Zm20.856-47.871a63.712,63.712,0,0,0,38.2-18.747,56.406,56.406,0,0,0,11.453-17.268,52.767,52.767,0,0,0,4.166-20.583,52.767,52.767,0,0,0-4.165-20.583,56.394,56.394,0,0,0-11.453-17.268,63.71,63.71,0,0,0-38.206-18.748Zm-40.233-240.47a61.079,61.079,0,0,0-15.719,12.522,56.019,56.019,0,0,0-10.417,16.691,52.777,52.777,0,0,0-3.771,19.618,52.776,52.776,0,0,0,3.771,19.62,56,56,0,0,0,10.417,16.693,61.107,61.107,0,0,0,15.719,12.524,64.665,64.665,0,0,0,19.377,7.05V2247.9A64.623,64.623,0,0,0-1627.536,2254.944Z" transform="translate(1854.798 -2114.199)" fill="#bebebe"/>
    </g>
  </g>
</svg>
