<svg xmlns="http://www.w3.org/2000/svg" xmlns:xlink="http://www.w3.org/1999/xlink" width="512" height="512" viewBox="0 0 512 512">
  <defs>
    <clipPath id="clip-prestamo">
      <rect width="512" height="512"/>
    </clipPath>
  </defs>
  <g id="prestamo" clip-path="url(#clip-prestamo)">
    <g id="icon_prestamos" transform="translate(1.621 11.676)">
      <g id="Group_6863" data-name="Group 6863" transform="translate(-0.621 3.324)">
        <path id="Path_7772" data-name="Path 7772" d="M2197.414-5383.719a6.966,6.966,0,0,1-3.812-1.328l-173.457-126.039h-89.73a7.04,7.04,0,0,1-7.035-7.031,7.047,7.047,0,0,1,7.035-7.062h91.6a7.049,7.049,0,0,1,4.391,1.539,7.037,7.037,0,0,1,1.617.883l170.781,124.07,192.9-85.875a7.059,7.059,0,0,1,9.3,3.57,7.066,7.066,0,0,1-3.566,9.313L2201.1-5384.266a6.927,6.927,0,0,1-2.84.6A6.137,6.137,0,0,1,2197.414-5383.719Z" transform="translate(-1923.379 5866.305)" fill="#bebebe"/>
        <rect id="Rectangle_5723" data-name="Rectangle 5723" width="176.152" height="14.092" rx="1" transform="matrix(0.819, 0.574, -0.574, 0.819, 152.916, 299.546)" fill="#bebebe"/>
        <path id="Subtraction_75" data-name="Subtraction 75" d="M74.291,148.6A74.3,74.3,0,1,1,148.6,74.3,74.375,74.375,0,0,1,74.291,148.6Zm0-134.619A60.321,60.321,0,1,0,134.644,74.3,60.4,60.4,0,0,0,74.291,13.986Z" transform="translate(157.893 130.029)" fill="#bebebe"/>
        <path id="Subtraction_76" data-name="Subtraction 76" d="M74.291,148.6A74.3,74.3,0,1,1,148.6,74.3,74.375,74.375,0,0,1,74.291,148.6Zm0-134.619A60.321,60.321,0,1,0,134.644,74.3,60.4,60.4,0,0,0,74.291,13.986Z" transform="translate(362.224 185.756)" fill="#bebebe"/>
        <path id="Subtraction_77" data-name="Subtraction 77" d="M74.291,148.6A74.3,74.3,0,1,1,148.6,74.3,74.375,74.375,0,0,1,74.291,148.6Zm0-134.619A60.321,60.321,0,1,0,134.644,74.3,60.4,60.4,0,0,0,74.291,13.986Z" transform="translate(325.073 0)" fill="#bebebe"/>
      </g>
    </g>
  </g>
</svg>
