<svg xmlns="http://www.w3.org/2000/svg" xmlns:xlink="http://www.w3.org/1999/xlink" width="512" height="512" viewBox="0 0 512 512">
  <defs>
    <clipPath id="clip-tarjeta_credito">
      <rect width="512" height="512"/>
    </clipPath>
  </defs>
  <g id="tarjeta_credito" clip-path="url(#clip-tarjeta_credito)">
    <g id="Ultralight-M" transform="translate(-1 63)">
      <path id="Path_7862" data-name="Path 7862" d="M2369.051-5076.984H1980.125c-40.641,0-62.121-21.477-62.121-62.125v-261.773c0-40.648,21.48-62.125,62.121-62.125h388.926c20.137,0,35.715,5.414,46.3,16.1,10.5,10.609,15.82,26.094,15.82,46.023v261.773c0,19.93-5.32,35.414-15.82,46.016C2404.734-5082.406,2389.156-5076.984,2369.051-5076.984Zm-439.211-253.57v190.977c0,33.211,17.547,50.766,50.754,50.766h387.73c32.883,0,50.988-18.031,50.988-50.766v-190.977Zm-.5-36.125v18.883h487.277v-18.883Zm51.25-84.492c-16.586,0-29.336,4.352-37.887,12.922s-12.867,21.383-12.867,38.094v17.164h489.473v-17.164c0-32.9-18.105-51.016-50.988-51.016Zm91.148,276.773H2012.5c-14.16,0-23.668-9.227-23.668-22.945v-45.219c0-13.734,9.508-22.961,23.668-22.961h59.246c14.176,0,23.7,9.227,23.7,22.961v45.219C2095.438-5183.625,2085.918-5174.4,2071.742-5174.4Zm-57.512-79.242a13.23,13.23,0,0,0-13.207,13.227v40.766a13.242,13.242,0,0,0,13.207,13.234h56.039a13.255,13.255,0,0,0,13.234-13.234v-40.766a13.243,13.243,0,0,0-13.234-13.227Z" transform="translate(-1918.004 5463.008)" fill="#bebebe"/>
    </g>
  </g>
</svg>
